<svg viewBox="0 0 309 74" xmlns="http://www.w3.org/2000/svg">
    <g clip-path="url(#id3)" transform="matrix(1, 0, 0, 1, -29, -177.523468)">
      <g clip-path="url(#id4)">
        <g clip-path="url(#id5)">
          <path class="path" fill="#9fed7d" d="M 338.023438 229.582031 C 337.839844 229.484375 337.992188 228.78125 337.988281 228.363281 C 337.980469 228.355469 337.976562 228.34375 337.96875 228.339844 C 337.976562 228.339844 337.980469 228.339844 337.980469 228.339844 C 337.980469 228.339844 337.980469 228.363281 337.980469 228.363281 C 340.753906 226.984375 339.765625 225.5 338.097656 224.003906 C 338.132812 223.429688 338.167969 222.867188 338.199219 222.296875 C 338.882812 222.273438 339.546875 222.1875 339.878906 221.460938 C 341.15625 219.90625 342.554688 218.375 340.933594 216.238281 C 339.859375 215.261719 339.21875 213.765625 337.566406 213.480469 C 337.296875 213.195312 337.023438 212.902344 336.753906 212.617188 C 337.988281 210.226562 335.992188 204.933594 333.441406 203.855469 C 332.433594 202.558594 336.011719 199.601562 331.824219 199.449219 C 331.25 199.414062 330.679688 199.378906 330.105469 199.347656 C 330.105469 199.078125 330.117188 198.804688 330.128906 198.535156 C 331.304688 198.28125 332.480469 198.03125 333.65625 197.777344 C 334.8125 198.078125 335.96875 198.378906 337.128906 198.675781 C 337.976562 197.355469 339.351562 196.257812 339.042969 194.421875 C 338.738281 194.691406 338.425781 194.957031 338.121094 195.222656 C 337.554688 194.640625 336.984375 194.058594 336.417969 193.472656 C 336.074219 192.722656 335.398438 192.625 334.691406 192.59375 C 334.683594 192.273438 334.667969 191.953125 334.660156 191.632812 C 334.542969 191.601562 334.425781 191.570312 334.308594 191.539062 C 332.695312 190.957031 331.125 188.625 329.445312 191.53125 C 329.160156 191.519531 328.875 191.503906 328.59375 191.492188 C 327.871094 189.476562 326.867188 187.789062 324.296875 188.003906 C 323.695312 187.984375 323.082031 187.96875 322.476562 187.949219 C 320.457031 187.011719 318.4375 186.078125 316.421875 185.132812 C 312.105469 184.320312 307.789062 183.5625 303.363281 183.882812 C 300.734375 183.816406 298.101562 183.746094 295.472656 183.675781 C 292.132812 183.519531 288.773438 183.507812 285.453125 183.171875 C 282.082031 182.828125 278.542969 183.914062 275.351562 182.03125 C 273.890625 181.984375 272.425781 181.941406 270.964844 181.894531 C 267.75 181.796875 264.539062 181.699219 261.324219 181.597656 C 258.109375 181.5 254.894531 181.402344 251.683594 181.304688 C 251.691406 181.574219 251.679688 181.84375 251.640625 182.113281 C 251.65625 182.171875 251.671875 182.226562 251.691406 182.277344 C 251.671875 182.269531 251.660156 182.269531 251.640625 182.261719 C 251.640625 182.261719 251.632812 182.109375 251.632812 182.109375 C 249.285156 182.101562 246.941406 182.097656 244.59375 182.09375 C 239.074219 181.941406 233.550781 181.785156 228.03125 181.632812 C 227.332031 181.5 226.640625 181.429688 226.203125 182.167969 C 223.574219 182.15625 220.945312 182.140625 218.316406 182.128906 C 215.707031 182.054688 213.097656 181.988281 210.488281 181.914062 C 210.492188 181.917969 210.5 181.917969 210.511719 181.925781 C 210.503906 181.917969 210.5 181.917969 210.488281 181.914062 C 209.246094 181.851562 207.917969 181.25 206.886719 182.472656 C 204.851562 182.472656 202.808594 182.472656 200.769531 182.476562 C 198.429688 182.402344 196.09375 182.324219 193.761719 182.253906 C 190.816406 182.273438 187.808594 181.117188 184.941406 182.710938 C 183.792969 182.71875 182.640625 182.71875 181.492188 182.726562 C 176.515625 182.296875 171.546875 181.867188 166.570312 181.429688 C 164.546875 181.367188 162.523438 181.304688 160.5 181.242188 C 159.785156 181.140625 159.085938 181.070312 158.664062 181.851562 C 148.144531 181.640625 137.625 181.421875 127.101562 181.207031 C 126.386719 180.996094 125.796875 181.136719 125.386719 181.792969 C 122.46875 181.746094 119.550781 181.695312 116.636719 181.640625 C 115.378906 181.535156 114.054688 181.039062 113.011719 182.234375 C 110.390625 182.203125 107.765625 182.167969 105.144531 182.136719 C 101.597656 182.144531 98.011719 180.964844 94.523438 182.519531 C 91.621094 182.484375 88.726562 182.457031 85.828125 182.425781 C 84.085938 182.359375 82.355469 182.285156 80.617188 182.222656 C 79.101562 182.210938 77.5 181.484375 76.140625 182.75 C 72.511719 182.765625 68.699219 182.253906 66.324219 185.996094 C 64.910156 186.015625 63.492188 186.035156 62.085938 186.050781 C 60.300781 186.253906 58.464844 186.273438 56.953125 187.449219 C 56.859375 187.742188 56.769531 188.035156 56.675781 188.324219 C 55.824219 188.296875 54.972656 188.265625 54.121094 188.238281 C 52.925781 186.570312 51.765625 188.582031 50.582031 188.277344 C 49.226562 189.238281 47.269531 188.367188 46.046875 189.730469 C 43.300781 190.125 42.058594 192.730469 39.832031 193.890625 C 37.742188 193.425781 37.019531 194.949219 36.210938 196.347656 C 33.320312 196.578125 35.382812 199.847656 33.5 200.695312 C 33.4375 202.722656 33.375 204.753906 33.3125 206.78125 C 33.59375 206.789062 33.882812 206.8125 34.167969 206.839844 C 34.554688 207.539062 35.214844 207.683594 35.945312 207.710938 C 37.011719 208.453125 37.117188 210.851562 39.324219 209.65625 L 39.394531 209.546875 C 39.414062 209.546875 39.425781 209.5625 39.441406 209.5625 C 39.40625 209.589844 39.359375 209.625 39.324219 209.65625 C 41.519531 212.875 39.164062 215.992188 39.121094 219.164062 C 39.121094 219.164062 39.066406 219.140625 39.066406 219.140625 C 38.546875 218.828125 38.019531 218.523438 37.496094 218.210938 C 37.128906 219.585938 37.3125 220.667969 38.980469 220.957031 C 38.980469 221.199219 38.960938 221.4375 38.917969 221.675781 C 38.070312 221.710938 37.222656 221.746094 36.382812 221.78125 C 35.082031 220.726562 35.804688 222.3125 35.445312 222.488281 C 33.953125 221.820312 35.339844 219.855469 33.8125 218.804688 C 33.746094 225.191406 33.070312 231.246094 34.1875 237.269531 C 34.144531 239.039062 34.097656 240.816406 34.054688 242.589844 C 34.039062 244.5 34.433594 246.316406 35.214844 248.035156 C 35.257812 248.257812 35.351562 248.46875 35.523438 248.671875 C 36.015625 251.53125 38.457031 252.214844 40.640625 253.1875 C 40.648438 253.457031 40.652344 253.726562 40.636719 254.003906 C 41.515625 254.03125 42.390625 254.058594 43.265625 254.085938 C 43.554688 254.09375 43.851562 254.101562 44.140625 254.113281 C 44.726562 254.128906 45.308594 254.148438 45.894531 254.164062 C 46.769531 254.191406 47.644531 254.21875 48.523438 254.246094 C 49.597656 252.582031 51.886719 254.269531 52.980469 252.660156 C 53.261719 252.65625 53.539062 252.683594 53.824219 252.730469 C 54.117188 252.964844 54.421875 253.203125 54.714844 253.441406 C 55.898438 253.175781 57.082031 252.914062 58.265625 252.652344 C 59.257812 252.953125 60.042969 252.421875 60.863281 252.027344 C 65.28125 253.039062 69.109375 250.761719 73.1875 249.882812 C 75.347656 250.300781 77.394531 249.871094 79.382812 249.054688 C 82.054688 249.226562 84.730469 249.390625 87.316406 248.417969 C 87.597656 248.457031 87.882812 248.496094 88.164062 248.535156 C 90.78125 250.417969 93.582031 251.503906 96.859375 250.519531 C 98.035156 255.082031 101.355469 252.523438 103.878906 252.605469 C 114.539062 253.699219 125.125 251.734375 135.769531 251.816406 C 138.253906 251.835938 141.011719 252.722656 143.433594 251.152344 C 147.625 253.140625 151.621094 251.347656 155.660156 250.519531 C 156.980469 251.28125 158.4375 250.96875 159.847656 251.03125 C 171.09375 251.523438 182.34375 251.585938 193.605469 251.230469 C 201.132812 250.996094 208.628906 251.71875 216.210938 251.167969 C 226.054688 250.457031 235.984375 250.835938 245.875 250.683594 C 247.40625 250.664062 249.105469 251.386719 250.441406 249.988281 C 256.648438 250.117188 262.90625 250.777344 269.0625 250.253906 C 279.1875 249.394531 289.246094 249.222656 299.378906 250.027344 C 306.183594 250.570312 313.0625 250.800781 319.871094 249.601562 C 320.132812 249.601562 320.398438 249.585938 320.652344 249.550781 C 324.121094 250.726562 327.671875 249.585938 331.175781 249.898438 C 332.015625 251.019531 332.90625 251.011719 333.828125 249.992188 C 338.148438 251.363281 338.921875 250.757812 339.191406 245.792969 C 339.015625 243.714844 337.035156 243.296875 335.800781 242.1875 C 335.113281 241.714844 334.683594 240.742188 335.234375 240.378906 C 336.804688 239.335938 336.96875 238.800781 335.011719 238.167969 C 334.371094 237.964844 333.871094 237.332031 333.308594 236.898438 C 334.382812 235.269531 336.675781 236.902344 337.753906 235.28125 C 339.269531 233.46875 342.039062 231.707031 338.023438 229.582031 Z M 338.023438 229.582031 " fill-opacity="1" fill-rule="nonzero"></path>
        </g>
      </g>
    </g>
  </svg>